<?xml version="1.0" encoding="UTF-8"?>
<!DOCTYPE svg PUBLIC "-//W3C//DTD SVG 1.1//EN" "http://www.w3.org/Graphics/SVG/1.1/DTD/svg11.dtd">
<!-- Creator: CorelDRAW X7 -->
<svg xmlns="http://www.w3.org/2000/svg" xml:space="preserve" width="173px" height="608px" version="1.1" style="shape-rendering:geometricPrecision; text-rendering:geometricPrecision; image-rendering:optimizeQuality; fill-rule:evenodd; clip-rule:evenodd"
viewBox="0 0 64 224"
 xmlns:xlink="http://www.w3.org/1999/xlink">
 <defs>
  <style type="text/css">
   <![CDATA[
    .fil6 {fill:#E5E5E5}
    .fil0 {fill:red}
    .fil2 {fill:#FF6600}
    .fil4 {fill:yellow}
    .fil7 {fill:#4C4C4C;fill-rule:nonzero}
    .fil1 {fill:#990000;fill-rule:nonzero}
    .fil5 {fill:#99990B;fill-rule:nonzero}
    .fil3 {fill:#B84F09;fill-rule:nonzero}
   ]]>
  </style>
 </defs>
 <g id="Layer_x0020_1">
  <metadata id="CorelCorpID_0Corel-Layer"/>
  <g>
   <polygon class="fil0" points="32,4 46,28 60,52 32,52 3,52 18,28 "/>
   <path id="1" class="fil1" d="M44 29l-14 -24 4 -2 14 24 0 0 -4 2zm14 24l-14 -24 4 -2 14 24 -2 3 -2 -1zm4 -2l2 3 -4 0 2 -3zm-30 -1l28 0 0 4 -28 0 0 0 0 -4zm-29 0l29 0 0 4 -29 0 -1 -3 1 -1zm0 4l-3 0 2 -3 1 3zm17 -25l-15 24 -3 -2 14 -24 4 2zm14 -24l-14 24 -4 -2 14 -24 4 0 0 2zm-4 -2l2 -3 2 3 -4 0z"/>
  </g>
  <g>
   <polygon class="fil2" points="32,63 46,87 60,111 32,111 3,111 18,87 "/>
   <path id="1" class="fil3" d="M44 88l-14 -24 4 -2 14 24 0 0 -4 2zm14 24l-14 -24 4 -2 14 24 -2 3 -2 -1zm4 -2l2 3 -4 0 2 -3zm-30 -1l28 0 0 4 -28 0 0 0 0 -4zm-29 0l29 0 0 4 -29 0 -1 -3 1 -1zm0 4l-3 0 2 -3 1 3zm17 -25l-15 24 -3 -2 14 -24 4 2zm14 -24l-14 24 -4 -2 14 -24 4 0 0 2zm-4 -2l2 -3 2 3 -4 0z"/>
  </g>
  <g>
   <polygon class="fil4" points="32,123 46,147 60,171 32,171 3,171 18,147 "/>
   <path id="1" class="fil5" d="M44 148l-14 -24 4 -2 14 24 0 0 -4 2zm14 24l-14 -24 4 -2 14 24 -2 3 -2 -1zm4 -2l2 3 -4 0 2 -3zm-30 -1l28 0 0 4 -28 0 0 0 0 -4zm-29 0l29 0 0 4 -29 0 -1 -3 1 -1zm0 4l-3 0 2 -3 1 3zm17 -25l-15 24 -3 -2 14 -24 4 2zm14 -24l-14 24 -4 -2 14 -24 4 0 0 2zm-4 -2l2 -3 2 3 -4 0z"/>
  </g>
  <g>
   <polygon class="fil6" points="32,184 43,203 54,222 32,222 10,222 21,203 "/>
   <path id="1" class="fil7" d="M41 204l-11 -19 4 -1 11 18 0 0 -4 2zm11 19l-11 -19 4 -2 11 19 -2 3 -2 -1zm4 -2l1 3 -3 0 2 -3zm-24 -1l22 0 0 4 -22 0 0 0 0 -4zm-22 0l22 0 0 4 -22 0 -2 -3 2 -1zm0 4l-4 0 2 -3 2 3zm13 -20l-12 19 -3 -2 11 -19 0 0 4 2zm11 -19l-11 19 -4 -2 11 -18 4 0 0 1zm-4 -1l2 -4 2 4 -4 0z"/>
  </g>
 </g>
</svg>
