<?xml version="1.0" encoding="UTF-8"?>
<!DOCTYPE svg PUBLIC "-//W3C//DTD SVG 1.1//EN" "http://www.w3.org/Graphics/SVG/1.1/DTD/svg11.dtd">
<!-- Creator: CorelDRAW X7 -->
<svg xmlns="http://www.w3.org/2000/svg" xml:space="preserve" width="100%" height="100%" version="1.1" style="shape-rendering:geometricPrecision; text-rendering:geometricPrecision; image-rendering:optimizeQuality; fill-rule:evenodd; clip-rule:evenodd"
viewBox="0 0 1116 1111"
 xmlns:xlink="http://www.w3.org/1999/xlink">
 <defs>
  <style type="text/css">
   <![CDATA[
    .fil0 {fill:#4495AF}
   ]]>
  </style>
 </defs>
 <g id="Layer_x0020_1">
  <metadata id="CorelCorpID_0Corel-Layer"/>
  <path class="fil0" d="M725 478l62 45 -43 82c12,13 23,28 32,44l91 -16 23 73 -83 40c1,9 2,18 2,28 0,9 -1,19 -2,28l83 41 -24 73 -91 -17c-9,16 -21,31 -33,45l42 82 -62 44 -63 -67c-16,7 -33,13 -50,16l-13 92 -76 0 -13 -92c-18,-4 -36,-9 -52,-17l-65 66 -62 -45 44 -81c-12,-14 -23,-28 -32,-44l-91 16 -24 -73 84 -40c-1,-9 -2,-18 -2,-27 0,-10 1,-20 2,-29l-83 -41 24 -73 91 17c9,-16 20,-31 33,-45l-43 -82 63 -45 63 68c16,-7 33,-13 50,-16l13 -92 76 0 13 92c18,4 36,9 52,17l64 -67zm-593 -402c0,-5 -1,-10 -3,-15 -3,-4 -7,-7 -13,-10 -4,-1 -9,-2 -14,-3 -5,0 -12,0 -19,0l-22 0 0 63 19 0c9,0 17,0 24,-1 6,-1 12,-4 16,-7 4,-3 7,-7 9,-11 2,-4 3,-9 3,-16zm96 165l-75 0 -64 -87 -28 0 0 87 -61 0 0 -237 102 0c14,0 26,1 36,3 10,1 20,5 29,10 8,5 16,12 21,20 5,9 8,19 8,32 0,18 -4,32 -12,43 -9,11 -20,20 -35,27l79 102zm198 0l-171 0 0 -237 171 0 0 46 -110 0 0 41 102 0 0 46 -102 0 0 58 110 0 0 46zm240 -75c0,24 -10,43 -30,57 -19,15 -46,22 -80,22 -20,0 -37,-2 -51,-5 -15,-3 -28,-8 -41,-13l0 -57 7 0c12,10 26,18 42,23 15,6 30,8 45,8 4,0 8,0 14,0 7,-1 11,-2 15,-4 5,-2 9,-4 12,-7 3,-3 4,-7 4,-13 0,-5 -2,-9 -6,-13 -5,-4 -11,-7 -20,-9 -9,-2 -18,-4 -28,-6 -10,-1 -19,-4 -28,-7 -20,-6 -34,-15 -43,-26 -8,-11 -13,-25 -13,-41 0,-22 10,-40 30,-54 20,-14 45,-21 76,-21 16,0 31,2 46,5 15,3 29,6 40,11l0 54 -7 0c-9,-7 -21,-14 -35,-19 -14,-5 -28,-7 -42,-7 -5,0 -10,0 -15,1 -5,0 -10,2 -15,4 -4,1 -8,4 -10,7 -3,3 -5,7 -5,11 0,6 2,11 7,14 5,3 14,6 27,9 9,2 17,4 25,5 8,2 17,4 26,7 18,6 31,14 40,25 9,10 13,23 13,39zm213 75l-171 0 0 -237 171 0 0 46 -110 0 0 41 103 0 0 46 -103 0 0 58 110 0 0 46zm237 -191l-74 0 0 191 -61 0 0 -191 -74 0 0 -46 209 0 0 46zm-558 568c86,0 155,70 155,156 0,85 -69,155 -155,155 -86,0 -155,-70 -155,-155 0,-86 69,-156 155,-156z"/>
 </g>
</svg>
