<?xml version="1.0" encoding="UTF-8"?>
<!DOCTYPE svg PUBLIC "-//W3C//DTD SVG 1.1//EN" "http://www.w3.org/Graphics/SVG/1.1/DTD/svg11.dtd">
<!-- Creator: CorelDRAW X7 -->
<svg xmlns="http://www.w3.org/2000/svg" xml:space="preserve" width="100%" height="100%" version="1.1" style="shape-rendering:geometricPrecision; text-rendering:geometricPrecision; image-rendering:optimizeQuality; fill-rule:evenodd; clip-rule:evenodd"
viewBox="0 0 1452 1507"
 xmlns:xlink="http://www.w3.org/1999/xlink">
 <defs>
  <style type="text/css">
   <![CDATA[
    .fil0 {fill:#4495AF}
   ]]>
  </style>
 </defs>
 <g id="Layer_x0020_1">
  <metadata id="CorelCorpID_0Corel-Layer"/>
  <path class="fil0" d="M794 41l164 0 0 372 -164 0 0 -372zm98 662l63 45 -44 83c12,13 23,28 32,44l92 -16 24 73 -84 41c1,9 1,18 1,27 0,10 0,20 -1,29l83 42 -24 73 -92 -17c-9,16 -21,31 -33,45l43 83 -63 44 -64 -67c-16,7 -33,12 -50,16l-13 92 -77 0 -13 -92c-18,-4 -36,-10 -52,-17l-65 66 -62 -45 44 -82c-13,-14 -24,-28 -33,-44l-91 16 -24 -73 84 -41c-1,-9 -2,-18 -2,-28 0,-9 1,-19 2,-29l-84 -41 24 -73 92 17c10,-17 21,-32 34,-45l-43 -83 62 -45 64 68c16,-7 33,-12 50,-16l13 -92 77 0 13 92c18,4 36,10 53,17l64 -67zm-168 141c86,0 156,70 156,156 0,87 -70,157 -156,157 -87,0 -157,-70 -157,-157 0,-86 70,-156 157,-156zm-592 663l1187 0c73,0 133,-60 133,-133l0 -1155 -224 -219 -137 0 0 433c0,33 -26,59 -59,59l-631 0c-32,0 -59,-26 -59,-59l0 -433 -210 0c-72,0 -132,60 -132,132l0 1242c0,73 60,133 132,133zm75 -877l1031 0c18,0 33,15 33,33l0 673c0,17 -15,32 -33,32l-1031 0c-18,0 -33,-15 -33,-32l0 -673c0,-18 15,-33 33,-33z"/>
 </g>
</svg>
