<?xml version="1.0" encoding="UTF-8"?>
<!DOCTYPE svg PUBLIC "-//W3C//DTD SVG 1.1//EN" "http://www.w3.org/Graphics/SVG/1.1/DTD/svg11.dtd">
<!-- Creator: CorelDRAW X7 -->
<svg xmlns="http://www.w3.org/2000/svg" xml:space="preserve" width="262px" height="235px" version="1.1" style="shape-rendering:geometricPrecision; text-rendering:geometricPrecision; image-rendering:optimizeQuality; fill-rule:evenodd; clip-rule:evenodd"
viewBox="0 0 1311 1178"
 xmlns:xlink="http://www.w3.org/1999/xlink">
 <defs>
  <style type="text/css">
   <![CDATA[
    .str0 {stroke:#4495AF;stroke-width:81.3016;stroke-linecap:round;stroke-linejoin:round}
    .str2 {stroke:#4495AF;stroke-width:81.3016;stroke-linecap:round;stroke-linejoin:round}
    .str1 {stroke:#4495AF;stroke-width:81.3016;stroke-linecap:round;stroke-linejoin:round}
    .fil1 {fill:none}
    .fil2 {fill:#4495AF}
    .fil0 {fill:white}
   ]]>
  </style>
 </defs>
 <g id="Layer_x0020_1">
  <metadata id="CorelCorpID_0Corel-Layer"/>
  <g id="_1969493837824">
   <rect class="fil0" width="1311" height="1178"/>
   <g>
    <path class="fil1 str0" d="M874 426c31,49 47,106 47,163 0,60 -18,119 -51,169"/>
    <path class="fil1 str1" d="M994 302c62,83 96,183 96,287 0,104 -34,206 -97,289"/>
    <path class="fil1 str2" d="M1101 200c87,111 135,248 135,389 0,142 -48,279 -136,389"/>
   </g>
   <path class="fil2" d="M449 406l33 -32 219 -215 0 0c9,-9 20,-14 33,-14l0 0c25,0 45,21 45,46l0 797c0,25 -20,45 -45,45l0 0c-13,0 -24,-5 -33,-14l0 0 -219 -215 -9 -9 -274 0c-21,0 -39,-17 -39,-39l0 -310c0,-22 18,-40 39,-40l250 0z"/>
  </g>
 </g>
</svg>
