<?xml version="1.0" encoding="UTF-8"?>
<!DOCTYPE svg PUBLIC "-//W3C//DTD SVG 1.1//EN" "http://www.w3.org/Graphics/SVG/1.1/DTD/svg11.dtd">
<!-- Creator: CorelDRAW X7 -->
<svg xmlns="http://www.w3.org/2000/svg" xml:space="preserve" width="500px" height="198px" version="1.1" style="shape-rendering:geometricPrecision; text-rendering:geometricPrecision; image-rendering:optimizeQuality; fill-rule:evenodd; clip-rule:evenodd"
viewBox="0 0 703 279"
 xmlns:xlink="http://www.w3.org/1999/xlink">
 <defs>
  <style type="text/css">
   <![CDATA[
    .fil0 {fill:#4495AF}
    .fil1 {fill:white}
    .fil2 {fill:white;fill-rule:nonzero}
   ]]>
  </style>
 </defs>
 <g id="Layer_x0020_1">
  <metadata id="CorelCorpID_0Corel-Layer"/>
  <g id="_1624111961168">
   <path class="fil0" d="M139 0l425 0c77,0 139,62 139,139l0 1c0,77 -62,139 -139,139l-425 0c-77,0 -139,-62 -139,-139l0 -1c0,-77 62,-139 139,-139z"/>
   <circle class="fil1" cx="561" cy="139" r="127"/>
   <path class="fil2" d="M187 139c0,19 -5,34 -16,45 -11,11 -26,17 -45,17 -19,0 -34,-6 -45,-17 -11,-11 -16,-26 -16,-45 0,-19 5,-34 16,-45 11,-11 26,-17 45,-17 19,0 34,6 45,17 11,11 16,26 16,45zm-41 30c3,-3 6,-8 7,-12 2,-5 2,-11 2,-18 0,-7 -1,-13 -2,-18 -2,-5 -4,-9 -7,-12 -2,-3 -6,-6 -9,-7 -4,-1 -7,-2 -11,-2 -4,0 -8,0 -11,2 -4,1 -7,4 -10,7 -2,3 -4,7 -6,12 -2,5 -3,11 -3,18 0,7 1,13 3,18 2,5 4,9 6,13 3,3 6,5 10,6 3,2 7,3 11,3 4,0 8,-1 11,-3 4,-1 7,-3 9,-7z"/>
   <polygon id="1" class="fil2" points="295,103 241,103 241,125 291,125 291,148 241,148 241,199 210,199 210,80 295,80 "/>
   <polygon id="2" class="fil2" points="402,103 347,103 347,125 398,125 398,148 347,148 347,199 317,199 317,80 402,80 "/>
  </g>
 </g>
</svg>
