<?xml version="1.0" encoding="UTF-8"?>
<!DOCTYPE svg PUBLIC "-//W3C//DTD SVG 1.1//EN" "http://www.w3.org/Graphics/SVG/1.1/DTD/svg11.dtd">
<!-- Creator: CorelDRAW X7 -->
<svg xmlns="http://www.w3.org/2000/svg" xml:space="preserve" width="77.8527mm" height="30.8266mm" version="1.1" style="shape-rendering:geometricPrecision; text-rendering:geometricPrecision; image-rendering:optimizeQuality; fill-rule:evenodd; clip-rule:evenodd"
viewBox="0 0 356 141"
 xmlns:xlink="http://www.w3.org/1999/xlink">
 <defs>
  <style type="text/css">
   <![CDATA[
    .fil0 {fill:#4495AF}
   ]]>
  </style>
 </defs>
 <g id="Layer_x0020_1">
  <metadata id="CorelCorpID_0Corel-Layer"/>
  <path class="fil0" d="M71 0l215 0c39,0 70,32 70,71l0 0c0,38 -31,70 -70,70l-215 0c-39,0 -71,-32 -71,-70l0 0c0,-39 32,-71 71,-71zm136 97l-14 0 -3 -11 -20 0 -4 11 -13 0 19 -53 16 0 19 53zm-21 -20l-6 -19 -7 19 13 0zm78 20l-14 0 -4 -11 -19 0 -4 11 -14 0 20 -53 15 0 20 53zm-21 -20l-7 -19 -6 19 13 0zm76 20l-13 0 -22 -36 0 36 -13 0 0 -53 17 0 19 30 0 -30 12 0 0 53zm-247 -91c36,0 65,29 65,65 0,35 -29,64 -65,64 -35,0 -64,-29 -64,-64 0,-36 29,-65 64,-65z"/>
 </g>
</svg>
