<?xml version="1.0" encoding="UTF-8"?>
<!DOCTYPE svg PUBLIC "-//W3C//DTD SVG 1.1//EN" "http://www.w3.org/Graphics/SVG/1.1/DTD/svg11.dtd">
<!-- Creator: CorelDRAW X7 -->
<svg xmlns="http://www.w3.org/2000/svg" xml:space="preserve" width="77.8527mm" height="30.8266mm" version="1.1" style="shape-rendering:geometricPrecision; text-rendering:geometricPrecision; image-rendering:optimizeQuality; fill-rule:evenodd; clip-rule:evenodd"
viewBox="0 0 356 141"
 xmlns:xlink="http://www.w3.org/1999/xlink">
 <defs>
  <style type="text/css">
   <![CDATA[
    .fil0 {fill:#4495AF}
   ]]>
  </style>
 </defs>
 <g id="Layer_x0020_1">
  <metadata id="CorelCorpID_0Corel-Layer"/>
  <path class="fil0" d="M286 141l-215 0c-39,0 -71,-32 -71,-70l0 0c0,-39 32,-71 71,-71l215 0c39,0 70,32 70,71l0 0c0,38 -31,70 -70,70zm-186 -64c0,7 -2,12 -6,15 -4,4 -10,5 -17,5 -8,0 -14,-1 -18,-5 -4,-3 -6,-8 -6,-15l0 -33 14 0 0 33c0,3 0,6 2,8 2,1 4,2 8,2 3,0 5,0 7,-2 2,-2 2,-5 2,-8l0 -33 14 0 0 33zm41 19l-31 0 0 -9 9 0 0 -34 -9 0 0 -9 31 0 0 9 -8 0 0 34 8 0 0 9zm53 -42l-17 0 0 42 -13 0 0 -42 -17 0 0 -10 47 0 0 10zm90 81c-35,0 -64,-29 -64,-64 0,-36 29,-65 64,-65 36,0 64,29 64,65 0,35 -28,64 -64,64z"/>
 </g>
</svg>
