<?xml version="1.0" encoding="UTF-8"?>
<!DOCTYPE svg PUBLIC "-//W3C//DTD SVG 1.1//EN" "http://www.w3.org/Graphics/SVG/1.1/DTD/svg11.dtd">
<!-- Creator: CorelDRAW X7 -->
<svg xmlns="http://www.w3.org/2000/svg" xml:space="preserve" width="920px" height="364px" version="1.1" style="shape-rendering:geometricPrecision; text-rendering:geometricPrecision; image-rendering:optimizeQuality; fill-rule:evenodd; clip-rule:evenodd"
viewBox="0 0 513 203"
 xmlns:xlink="http://www.w3.org/1999/xlink">
 <defs>
  <style type="text/css">
   <![CDATA[
    .fil0 {fill:#4495AF}
   ]]>
  </style>
 </defs>
 <g id="Layer_x0020_1">
  <metadata id="CorelCorpID_0Corel-Layer"/>
  <path class="fil0" d="M102 0l310 0c56,0 101,46 101,102l0 0c0,56 -45,101 -101,101l-310 0c-56,0 -102,-45 -102,-101l0 0c0,-56 46,-102 102,-102zm194 145l-23 0 -6 -18 -32 0 -6 18 -23 0 32 -87 26 0 32 87zm-35 -33l-10 -31 -11 31 21 0zm127 33l-23 0 -6 -18 -32 0 -6 18 -22 0 32 -87 25 0 32 87zm-34 -33l-11 -31 -10 31 21 0zm126 33l-22 0 -37 -60 0 60 -20 0 0 -87 26 0 32 50 0 -50 21 0 0 87zm-376 -136c51,0 93,41 93,93 0,51 -42,92 -93,92 -51,0 -93,-41 -93,-92 0,-52 42,-93 93,-93z"/>
 </g>
</svg>
